REM Ripping Tool: trurip

FILE "Gambler Jiko Chuushinha - CD Da Yo Zen'in Shuugou!! - Gekitou 36 Janshi (1989)(Hudson)(JP).img" BINARY
  TRACK 01 AUDIO
    INDEX 01 00:00:00
  TRACK 02 MODE1/2352
    INDEX 00 00:48:05
    INDEX 01 00:51:11
  TRACK 03 AUDIO
    INDEX 00 02:45:13
    INDEX 01 02:47:13
  TRACK 04 AUDIO
    INDEX 01 03:47:44
  TRACK 05 AUDIO
    INDEX 01 03:55:57
  TRACK 06 AUDIO
    INDEX 01 04:57:08
  TRACK 07 AUDIO
    INDEX 01 05:55:10
  TRACK 08 AUDIO
    INDEX 01 09:03:30
  TRACK 09 AUDIO
    INDEX 01 10:59:11
  TRACK 10 MODE1/2352
    INDEX 00 12:05:27
    INDEX 01 12:08:27

REM DISC HASHES
REM CRC32 : 73cb6cda
REM MD5   : e488a9ee4fc01c594a04c7de218cc7f4
REM SHA1  : 0eee5e798ed8fbd7126d5ca35507e5a25352dc8b

REM Gap Append Method: Prev [crc32]
REM Trk 01: 31a6e0ba
REM Trk 02: a0be0e73
REM Trk 03: 300ab9ca
REM Trk 04: 290e6692
REM Trk 05: 938fe16a
REM Trk 06: ae93d9ea
REM Trk 07: 180ea20c
REM Trk 08: 8c460b4b
REM Trk 09: b54c9623
REM Trk 10: 08b530d8

REM Gap Append Method: Prev [md5]
REM Trk 01: 18cf4d3649f1a382a615b84b68fbee65
REM Trk 02: 2e6f54bcbec095e860ae36627b3ee049
REM Trk 03: 4420883d326d49936b3b5311d5eb91f6
REM Trk 04: 8620dc45033e1878e96ba0cc7c52b1a7
REM Trk 05: b0573f5a3b25f77f0e8ba1f9f3e4b22a
REM Trk 06: 8fca87350ef6c2725cb545d5e9d3665a
REM Trk 07: c9809d0bbf2bced7f1b227f9e80ce8bd
REM Trk 08: 525daf7c2a507d0acf9a9a9ffeed151d
REM Trk 09: 7b601e73b68669ba0f52f93a261bb850
REM Trk 10: 1a088c5319bc5d92e58292d77a36614d

REM Gap Append Method: Prev [sha1]
REM Trk 01: 2342bd6653efb5162e3c3ff45332c76d37e12853
REM Trk 02: f64f23afd1c3272c1257ee01d23ee28951110f1e
REM Trk 03: 714329628d0bae5f005f1fb9efbe4bd1811fe322
REM Trk 04: 644a0d7006184e1c1ded844c569fd950c8b09226
REM Trk 05: dcffb13fe9922c2590c455348ff0b3e0e1889c74
REM Trk 06: 4e0e1776d0b0c9353318c38d6b7a718e83bd01d9
REM Trk 07: 46a2e330961c9fbb5e58c544e851cf3fee6a3a08
REM Trk 08: d3f5a352084d9458b4ae4f932d57555165949ad0
REM Trk 09: 872c1dc629901d21cc234c96bc9199f5009c9e97
REM Trk 10: 6bb7c52c161341c1baefbb2e485f4069d637fd8b

REM Gap Append Method: None [crc32]
REM Trk 01: 87af9dc1
REM Trk 02: be060b7e
REM Trk 03: 300ab9ca
REM Trk 04: 290e6692
REM Trk 05: 938fe16a
REM Trk 06: ae93d9ea
REM Trk 07: 180ea20c
REM Trk 08: 8c460b4b
REM Trk 09: 799e9b0d
REM Trk 10: 08b530d8
REM Gap 02: 83060d48
REM Gap 03: 7abe247f
REM Gap 10: 575065a8

REM Gap Append Method: None [md5]
REM Trk 01: 919f26f655382ae65926565dbded8330
REM Trk 02: 8e031876ab03dea4cde5e86b1eaa7371
REM Trk 03: 4420883d326d49936b3b5311d5eb91f6
REM Trk 04: 8620dc45033e1878e96ba0cc7c52b1a7
REM Trk 05: b0573f5a3b25f77f0e8ba1f9f3e4b22a
REM Trk 06: 8fca87350ef6c2725cb545d5e9d3665a
REM Trk 07: c9809d0bbf2bced7f1b227f9e80ce8bd
REM Trk 08: 525daf7c2a507d0acf9a9a9ffeed151d
REM Trk 09: 995b5c5f70f43eac7c8b929950006202
REM Trk 10: 1a088c5319bc5d92e58292d77a36614d
REM Gap 02: 04fcb341565730fe5b507453cf2729b0
REM Gap 03: 9df204fbc98bb8965081cb30a89715fc
REM Gap 10: c241a29cf3d83840f9c37b76a166c041

REM Gap Append Method: None [sha1]
REM Trk 01: 2a69677a2928d09082122cf89d060ef079b18571
REM Trk 02: 6564bbfc4efcb36093e4a0376203700f4d3f0c00
REM Trk 03: 714329628d0bae5f005f1fb9efbe4bd1811fe322
REM Trk 04: 644a0d7006184e1c1ded844c569fd950c8b09226
REM Trk 05: dcffb13fe9922c2590c455348ff0b3e0e1889c74
REM Trk 06: 4e0e1776d0b0c9353318c38d6b7a718e83bd01d9
REM Trk 07: 46a2e330961c9fbb5e58c544e851cf3fee6a3a08
REM Trk 08: d3f5a352084d9458b4ae4f932d57555165949ad0
REM Trk 09: 43e12c21a3a72c850809b5bbc9592e2fd506582c
REM Trk 10: 6bb7c52c161341c1baefbb2e485f4069d637fd8b
REM Gap 02: 8458cd6d079054ba34959c346ff242f1a55baca7
REM Gap 03: cbe29e0bd725ef1194f8c47619dd42078e841de2
REM Gap 10: 3987651ab6b58acc756a7b4a77210888c5da6e16

REM Gap Append Method: Next [crc32]
REM Trk 01: 87af9dc1
REM Trk 02: 20fede50
REM Trk 03: df015e4d
REM Trk 04: 290e6692
REM Trk 05: 938fe16a
REM Trk 06: ae93d9ea
REM Trk 07: 180ea20c
REM Trk 08: 8c460b4b
REM Trk 09: 799e9b0d
REM Trk 10: 4117a9bc

REM Gap Append Method: Next [md5]
REM Trk 01: 919f26f655382ae65926565dbded8330
REM Trk 02: e86506b8161f70990d48bfc3e997eaef
REM Trk 03: d1b9523785cca74946d42b8c0502bd3a
REM Trk 04: 8620dc45033e1878e96ba0cc7c52b1a7
REM Trk 05: b0573f5a3b25f77f0e8ba1f9f3e4b22a
REM Trk 06: 8fca87350ef6c2725cb545d5e9d3665a
REM Trk 07: c9809d0bbf2bced7f1b227f9e80ce8bd
REM Trk 08: 525daf7c2a507d0acf9a9a9ffeed151d
REM Trk 09: 995b5c5f70f43eac7c8b929950006202
REM Trk 10: 455a10a680c5cfea030fdd5b37c7463e

REM Gap Append Method: Next [sha1]
REM Trk 01: 2a69677a2928d09082122cf89d060ef079b18571
REM Trk 02: b2f5e6857ae04191a881f551791207681449cc9f
REM Trk 03: f81b1cef972523b46f66a93ddf54771a777115a9
REM Trk 04: 644a0d7006184e1c1ded844c569fd950c8b09226
REM Trk 05: dcffb13fe9922c2590c455348ff0b3e0e1889c74
REM Trk 06: 4e0e1776d0b0c9353318c38d6b7a718e83bd01d9
REM Trk 07: 46a2e330961c9fbb5e58c544e851cf3fee6a3a08
REM Trk 08: d3f5a352084d9458b4ae4f932d57555165949ad0
REM Trk 09: 43e12c21a3a72c850809b5bbc9592e2fd506582c
REM Trk 10: b349d9f546e6ff687eac8c9878ef8598ccc1355c

